<svg width="25" height="25" viewBox="0 0 25 25" fill="none" xmlns="http://www.w3.org/2000/svg">
<path d="M21.3384 3.66162C18.9762 1.29945 15.8407 0 12.5 0C9.1593 0 6.02378 1.29945 3.66162 3.66162C1.29945 6.02378 0 9.1593 0 12.5C0 15.8407 1.29945 18.9762 3.66162 21.3384C6.02378 23.7005 9.1593 25 12.5 25C15.8407 25 18.9762 23.7005 21.3384 21.3384C23.7005 18.9762 25 15.8407 25 12.5C25 9.1593 23.7005 6.02378 21.3384 3.66162ZM20.3335 20.3335C18.2397 22.4274 15.4566 23.5795 12.5 23.5795C9.54335 23.5795 6.76031 22.4274 4.66646 20.3335C0.347222 16.0143 0.347222 8.98569 4.66646 4.66646C6.76031 2.5726 9.54335 1.42045 12.5 1.42045C15.4566 1.42045 18.2397 2.5726 20.3335 4.66646C24.6528 8.98569 24.6528 16.0143 20.3335 20.3335Z" fill="#D0D0DA"/>
</svg>
