<svg width="13" height="13" viewBox="0 0 13 13" fill="none" xmlns="http://www.w3.org/2000/svg">
<path d="M12.0082 0.991715C11.7294 0.712885 11.2822 0.712885 11.0034 0.991715L6.50003 5.49508L1.99668 0.991715C1.71785 0.712885 1.27067 0.712885 0.991837 0.991715C0.713008 1.27055 0.713008 1.71773 0.991837 1.99656L5.49519 6.49992L0.991837 11.0033C0.713008 11.2821 0.713008 11.7293 0.991837 12.0081C1.12862 12.1449 1.31275 12.2186 1.49163 12.2186C1.6705 12.2186 1.85463 12.1502 1.99141 12.0081L6.49477 7.50476L10.9981 12.0081C11.1349 12.1449 11.319 12.2186 11.4979 12.2186C11.682 12.2186 11.8609 12.1502 11.9977 12.0081C12.2765 11.7293 12.2765 11.2821 11.9977 11.0033L7.50487 6.49992L12.0082 1.99656C12.2871 1.71773 12.2871 1.27055 12.0082 0.991715Z" fill="#D0D0DA"/>
</svg>
