<svg width="13" height="13" viewBox="0 0 13 13" fill="none" xmlns="http://www.w3.org/2000/svg">
<path d="M11.946 0.622324C11.2019 -0.121748 9.99557 -0.121748 9.2515 0.622324L1.69798 8.17583C1.64622 8.2276 1.60884 8.29177 1.58932 8.36222L0.596016 11.9483C0.555166 12.0953 0.596678 12.2528 0.70451 12.3608C0.812507 12.4686 0.969954 12.5101 1.11698 12.4694L4.70305 11.4759C4.7735 11.4564 4.83767 11.4191 4.88944 11.3673L12.4428 3.81361C13.1857 3.06904 13.1857 1.86371 12.4428 1.11914L11.946 0.622324ZM2.62051 8.45104L8.80247 2.26891L10.7962 4.26263L4.61407 10.4448L2.62051 8.45104ZM2.22226 9.25018L3.81509 10.8432L1.61182 11.4536L2.22226 9.25018ZM11.8441 3.21491L11.3951 3.66394L9.40117 1.67004L9.85036 1.22102C10.2637 0.807721 10.9338 0.807721 11.3471 1.22102L11.8441 1.71784C12.2567 2.13164 12.2567 2.80128 11.8441 3.21491Z" fill="#FB3F3C"/>
</svg>
