<svg width="17" height="16" viewBox="0 0 17 16" fill="none" xmlns="http://www.w3.org/2000/svg">
<path d="M15.6903 9.67912C15.4565 9.67912 15.2669 9.86866 15.2669 10.1025V13.8617C15.2661 14.563 14.698 15.1312 13.9968 15.1319H2.11694C1.4157 15.1312 0.847603 14.563 0.846776 13.8617V2.82867C0.847603 2.1276 1.4157 1.55933 2.11694 1.55851H5.87616C6.11002 1.55851 6.29955 1.36897 6.29955 1.13512C6.29955 0.901429 6.11002 0.711731 5.87616 0.711731H2.11694C0.948323 0.713054 0.00132309 1.66005 0 2.82867V13.8619C0.00132309 15.0305 0.948323 15.9775 2.11694 15.9788H13.9968C15.1654 15.9775 16.1124 15.0305 16.1137 13.8619V10.1025C16.1137 9.86866 15.9242 9.67912 15.6903 9.67912Z" fill="#FB3F3C"/>
</svg>
